<?xml version="1.0" encoding="UTF-8"?>
<svg id="Calque_1" xmlns="http://www.w3.org/2000/svg" version="1.1" viewBox="0 0 573.48 290.18">
  <!-- Generator: Adobe Illustrator 29.3.1, SVG Export Plug-In . SVG Version: 2.1.0 Build 151)  -->
  <g>
    <rect x="100.45" y="68.58" width="6.86" height="41.68"/>
    <polygon points="161.93 100.7 159.29 95.79 141.82 68.58 141.27 68.58 136.24 68.58 134.65 68.58 134.65 110.26 141.51 110.26 141.32 78.1 144.03 83.17 161.43 110.26 161.98 110.26 167.07 110.26 168.6 110.26 168.6 68.58 161.74 68.58 161.93 100.7"/>
    <path d="M222.81,89.57c-1.21-.88-2.55-1.57-4.04-2.08-1.49-.51-3.03-.92-4.63-1.23-1.59-.31-3.14-.61-4.63-.92-1.49-.31-2.85-.69-4.08-1.16-1.23-.47-2.19-1.12-2.88-1.96-.7-.84-1.04-1.95-1.04-3.34,0-1.63.66-2.95,1.99-3.95,1.33-1,3.18-1.5,5.55-1.5s4.47.59,6.07,1.78c1.59,1.19,2.68,3.06,3.25,5.64h7.29c-.49-3.06-1.51-5.55-3.06-7.45-1.55-1.9-3.48-3.31-5.79-4.23-2.31-.92-4.83-1.38-7.57-1.38-3.19,0-5.87.53-8.06,1.59-2.19,1.06-3.85,2.48-5,4.26s-1.72,3.71-1.72,5.79.36,3.86,1.07,5.21c.71,1.35,1.68,2.44,2.88,3.28,1.21.84,2.55,1.5,4.04,1.99,1.49.49,3.03.9,4.63,1.23,1.59.33,3.13.67,4.63,1.01,1.49.35,2.85.78,4.08,1.29,1.23.51,2.19,1.23,2.88,2.15.69.92,1.04,2.11,1.04,3.59,0,1.88-.74,3.39-2.21,4.54-1.47,1.14-3.64,1.72-6.5,1.72s-5.03-.62-6.74-1.87c-1.72-1.25-2.88-3.05-3.49-5.42h-7.17c.57,2.9,1.64,5.31,3.22,7.23,1.57,1.92,3.55,3.35,5.95,4.29s5.12,1.41,8.18,1.41,5.78-.49,8.15-1.47c2.37-.98,4.24-2.43,5.61-4.35,1.37-1.92,2.05-4.25,2.05-6.99,0-2.12-.36-3.88-1.07-5.27-.72-1.39-1.68-2.52-2.88-3.4Z"/>
    <polygon points="260.9 68.58 246.99 68.58 246.99 74.34 260.9 74.34 260.9 110.26 267.76 110.26 267.76 74.34 281.62 74.34 281.62 68.58 267.76 68.58 260.9 68.58"/>
    <rect x="306.25" y="68.58" width="6.86" height="41.68"/>
    <polygon points="351.67 68.58 337.76 68.58 337.76 74.34 351.67 74.34 351.67 110.26 358.53 110.26 358.53 74.34 372.38 74.34 372.38 68.58 358.53 68.58 351.67 68.58"/>
    <path d="M423.68,94.39c0,3.43-.89,6.15-2.67,8.15-1.78,2-4.26,3-7.45,3s-5.62-.99-7.42-2.97c-1.8-1.98-2.7-4.71-2.7-8.18v-25.8h-6.86v25.8c0,3.43.68,6.4,2.05,8.89,1.37,2.49,3.32,4.41,5.85,5.76,2.53,1.35,5.56,2.02,9.07,2.02s6.53-.67,9.04-2.02c2.51-1.35,4.46-3.27,5.85-5.76,1.39-2.49,2.08-5.45,2.08-8.89v-25.8h-6.86v25.8Z"/>
    <polygon points="489.32 68.58 475.47 68.58 468.6 68.58 454.69 68.58 454.69 74.34 468.6 74.34 468.6 110.26 475.47 110.26 475.47 74.34 489.32 74.34 489.32 68.58"/>
  </g>
  <g>
    <g>
      <g>
        <path d="M213.9,193.05v-26.08c0-5.18-1-9.74-3.01-13.67-2.01-3.93-5.04-7-9.09-9.22-4.06-2.21-9.09-3.32-15.11-3.32-5.52,0-10.32.94-14.42,2.82-4.1,1.88-7.36,4.58-9.78,8.09-2.43,3.51-4.01,7.73-4.76,12.66h13.42c.58-3.76,2.07-6.75,4.45-8.96,2.38-2.21,5.75-3.32,10.09-3.32,5.1,0,8.84,1.3,11.22,3.89,2.38,2.59,3.57,6.31,3.57,11.16v1.51c-5.75.04-10.9.29-15.42.74-5.02.5-9.86,1.55-14.54,3.13-5.02,1.76-8.78,4.26-11.28,7.52-2.51,3.26-3.76,7.19-3.76,11.79,0,4.26.96,7.82,2.88,10.66,1.92,2.84,4.6,4.97,8.02,6.39,3.43,1.42,7.4,2.13,11.91,2.13,3.18,0,6.35-.56,9.53-1.69,3.18-1.13,6.12-2.9,8.84-5.33,1.43-1.28,2.73-2.76,3.9-4.44.04,1.2.1,2.39.18,3.56.17,2.51.63,4.6,1.38,6.27h14.04c-.75-1.84-1.32-4.01-1.69-6.52-.38-2.51-.56-5.77-.56-9.78ZM190.89,197.75c-2.97,1.8-6.33,2.7-10.09,2.7-3.51,0-6.35-.81-8.53-2.44-2.17-1.63-3.26-3.87-3.26-6.71,0-2.01.46-3.82,1.38-5.45.92-1.63,2.59-3.05,5.02-4.26,2.42-1.21,5.81-2.15,10.16-2.82,3.94-.61,8.92-.93,14.92-.99v3c0,3.51-.86,6.77-2.57,9.78-1.71,3.01-4.06,5.41-7.02,7.21Z"/>
        <path d="M272.89,175.18c-2.55-1.29-5.33-2.3-8.34-3.01-3.01-.71-6.04-1.29-9.09-1.76-3.05-.46-5.87-1.04-8.46-1.76-2.59-.71-4.64-1.71-6.14-3.01-1.5-1.29-2.26-3.15-2.26-5.58s1.02-4.58,3.07-6.21c2.05-1.63,4.91-2.44,8.59-2.44,4.26,0,7.69.98,10.28,2.95,2.59,1.96,4.26,5.29,5.02,9.97h13.42c-.67-5.52-2.3-10.01-4.89-13.48-2.59-3.47-5.85-6.02-9.78-7.65-3.93-1.63-8.4-2.44-13.42-2.44-5.69,0-10.39.94-14.11,2.82-3.72,1.88-6.48,4.35-8.28,7.4-1.8,3.05-2.7,6.33-2.7,9.84,0,3.93.75,7.08,2.26,9.47,1.5,2.38,3.51,4.24,6.02,5.58,2.51,1.34,5.24,2.36,8.21,3.07,2.97.71,5.96,1.32,8.96,1.82,3.01.5,5.79,1.07,8.34,1.69,2.55.63,4.58,1.61,6.08,2.95,1.5,1.34,2.26,3.18,2.26,5.52,0,2.76-1.17,5.06-3.51,6.9-2.34,1.84-5.77,2.76-10.28,2.76s-8.53-1.13-11.54-3.39c-3.01-2.26-4.85-5.47-5.52-9.65h-13.42c1.25,8.02,4.58,13.94,9.97,17.74,5.39,3.8,12.1,5.71,20.12,5.71,5.43,0,10.22-.86,14.36-2.57,4.14-1.71,7.38-4.16,9.72-7.33,2.34-3.18,3.51-6.85,3.51-11.03,0-3.93-.77-7.06-2.32-9.4-1.55-2.34-3.59-4.16-6.14-5.45Z"/>
        <path d="M320.34,152.92v-10.41h-14.42v-15.42h-13.42v15.42h-9.03v10.41h9.03v36.49c0,7.19,1.59,12.58,4.76,16.17,3.18,3.59,7.98,5.39,14.42,5.39,1.84,0,3.53-.11,5.08-.31,1.55-.21,2.65-.52,3.32-.94v-9.78h-2.63c-4.6,0-7.67-.92-9.22-2.76-1.55-1.84-2.32-4.68-2.32-8.53v-35.73h14.42Z"/>
      </g>
      <path d="M372.88,187.53c-1.17,4.18-3.2,7.27-6.08,9.28s-6.46,3.01-10.72,3.01c-5.77,0-10.22-2.07-13.35-6.21-2.78-3.67-4.32-8.71-4.64-15.11h48.33v-3.26c0-7.19-1.25-13.33-3.76-18.43-2.51-5.1-6.06-9.05-10.66-11.85-4.6-2.8-10.11-4.2-16.55-4.2s-11.74,1.36-16.42,4.07c-4.68,2.72-8.3,6.69-10.85,11.91-2.55,5.23-3.82,11.64-3.82,19.25,0,7.19,1.27,13.42,3.82,18.68,2.55,5.27,6.21,9.3,10.97,12.1,4.76,2.8,10.41,4.2,16.93,4.2,7.77,0,14.4-1.96,19.87-5.89,5.47-3.93,9.13-9.78,10.97-17.55h-14.04ZM342.47,158.13c2.97-4.14,7.29-6.21,12.98-6.21s9.91,2.05,12.91,6.14c2.12,2.89,3.48,6.66,4.1,11.28h-34.01c.63-4.6,1.96-8.36,4.01-11.22Z"/>
      <path d="M439.2,142.52v39.12c0,2.34-.38,4.6-1.13,6.77-.75,2.17-1.8,4.12-3.13,5.83-1.34,1.71-2.99,3.07-4.95,4.08-1.96,1-4.16,1.5-6.58,1.5-2.93,0-5.35-.6-7.27-1.82-1.92-1.21-3.34-2.99-4.26-5.33-.92-2.34-1.38-5.1-1.38-8.27v-41.88h-13.42v44.64c0,5.27.9,9.65,2.7,13.17,1.8,3.51,4.37,6.17,7.71,7.96,3.34,1.8,7.27,2.7,11.79,2.7s8.84-1.07,12.48-3.2c2.96-1.74,5.44-4.22,7.46-7.42v8.99h13.29v-66.83h-13.29Z"/>
      <path d="M502.26,141.2c-1.17-.29-2.43-.44-3.76-.44-4.18,0-8,1.11-11.47,3.32-2.95,1.89-5.48,4.69-7.59,8.4v-9.96h-13.42v66.83h13.42v-36.49c0-2.92.35-5.58,1.07-7.96.71-2.38,1.82-4.43,3.32-6.14,1.5-1.71,3.41-3.03,5.71-3.95,2.3-.92,5.03-1.38,8.21-1.38,1.42,0,2.72.06,3.89.19,1.17.13,2.26.36,3.26.69v-11.79c-.59-.58-1.46-1.02-2.63-1.32Z"/>
    </g>
    <path d="M112.34,232.81c-1.3-.64-31.04-15.64-34-47.37-10.3-7.75-17.81-18.33-21.38-27.39l11.63-4.58c2.16,5.49,5.74,10.87,10.11,15.53,1.67-12.94,6.64-24.06,14.33-31.6,7.13-7,16.29-10.5,25.78-9.87,13.4.9,24.39,11.01,27.36,25.17,2.6,12.42-1.34,29.19-20.22,39.01-10.25,5.34-21.72,5.92-33.18,1.7,6.41,18.65,24.89,28.09,25.11,28.2l-5.54,11.21ZM90.57,178.56c2.09,1.22,4.22,2.25,6.36,3.05,8.24,3.08,16.06,2.74,23.25-1,15.95-8.3,14.56-21.51,13.75-25.36-1.5-7.17-7.02-14.66-15.96-15.26-5.97-.4-11.57,1.78-16.19,6.32-7.15,7.01-11.15,18.62-11.21,32.25Z"/>
  </g>
</svg>